<svg data-v-423bf9ae="" xmlns="http://www.w3.org/2000/svg" viewBox="0 0 488 112" class="iconLeftSlogan"><!----><!----><!----><g data-v-423bf9ae="" id="f0ba081f-ef84-4359-8dcc-08e305ebb4e3" fill="white" transform="matrix(5.763688845290021,0,0,5.763688845290021,76.74808090679647,-15.273775512849596)"><path d="M3.28 12.19L4.13 12.19L4.13 12.19Q5.52 12.19 6.16 11.70L6.16 11.70L6.16 11.70Q6.80 11.21 6.80 10.29L6.80 10.29L6.80 10.29Q6.80 9.31 6.15 8.82L6.15 8.82L6.15 8.82Q5.50 8.33 4.03 8.33L4.03 8.33L3.25 8.33L3.25 8.33Q3.25 9.38 3.25 10.32L3.25 10.32L3.25 10.32Q3.25 11.27 3.28 12.19L3.28 12.19ZM4.27 4.14L3.28 4.14L3.28 4.14Q3.25 5.03 3.25 5.91L3.25 5.91L3.25 5.91Q3.25 6.79 3.25 7.69L3.25 7.69L3.99 7.69L3.99 7.69Q5.26 7.69 5.84 7.26L5.84 7.26L5.84 7.26Q6.41 6.83 6.41 5.87L6.41 5.87L6.41 5.87Q6.41 4.91 5.87 4.53L5.87 4.53L5.87 4.53Q5.33 4.14 4.27 4.14L4.27 4.14ZM0.62 3.49L4.68 3.49L4.68 3.49Q5.40 3.49 5.97 3.65L5.97 3.65L5.97 3.65Q6.54 3.82 6.93 4.13L6.93 4.13L6.93 4.13Q7.32 4.44 7.53 4.86L7.53 4.86L7.53 4.86Q7.73 5.28 7.73 5.78L7.73 5.78L7.73 5.78Q7.73 6.52 7.23 7.13L7.23 7.13L7.23 7.13Q6.73 7.74 5.59 7.98L5.59 7.98L5.59 7.98Q6.27 8.08 6.77 8.29L6.77 8.29L6.77 8.29Q7.27 8.51 7.58 8.81L7.58 8.81L7.58 8.81Q7.90 9.11 8.04 9.49L8.04 9.49L8.04 9.49Q8.19 9.87 8.19 10.29L8.19 10.29L8.19 10.29Q8.19 10.77 7.99 11.23L7.99 11.23L7.99 11.23Q7.78 11.69 7.34 12.05L7.34 12.05L7.34 12.05Q6.89 12.40 6.17 12.63L6.17 12.63L6.17 12.63Q5.46 12.85 4.44 12.85L4.44 12.85L0.62 12.85L0.62 12.28L1.90 12.12L1.90 12.12Q1.93 11.24 1.93 10.34L1.93 10.34L1.93 10.34Q1.93 9.44 1.93 8.51L1.93 8.51L1.93 7.83L1.93 7.83Q1.93 6.92 1.93 6.02L1.93 6.02L1.93 6.02Q1.93 5.12 1.90 4.21L1.90 4.21L0.62 4.06L0.62 3.49ZM13.34 11.38L13.34 9.23L13.34 9.23Q12.98 9.32 12.64 9.44L12.64 9.44L12.64 9.44Q12.29 9.55 12.07 9.63L12.07 9.63L12.07 9.63Q11.61 9.81 11.33 10.00L11.33 10.00L11.33 10.00Q11.06 10.19 10.92 10.37L10.92 10.37L10.92 10.37Q10.78 10.56 10.74 10.74L10.74 10.74L10.74 10.74Q10.70 10.92 10.70 11.07L10.70 11.07L10.70 11.07Q10.70 11.35 10.77 11.52L10.77 11.52L10.77 11.52Q10.85 11.69 10.96 11.82L10.96 11.82L10.96 11.82Q11.28 12.14 11.82 12.14L11.82 12.14L11.82 12.14Q11.98 12.14 12.14 12.10L12.14 12.10L12.14 12.10Q12.29 12.07 12.46 11.98L12.46 11.98L12.46 11.98Q12.63 11.89 12.84 11.74L12.84 11.74L12.84 11.74Q13.05 11.59 13.34 11.38L13.34 11.38ZM15.58 11.94L15.86 12.25L15.86 12.25Q15.62 12.70 15.34 12.85L15.34 12.85L15.34 12.85Q15.06 12.99 14.73 12.99L14.73 12.99L14.73 12.99Q14.14 12.99 13.80 12.71L13.80 12.71L13.80 12.71Q13.47 12.42 13.37 11.94L13.37 11.94L13.37 11.94Q13.09 12.22 12.85 12.43L12.85 12.43L12.85 12.43Q12.61 12.64 12.38 12.78L12.38 12.78L12.38 12.78Q12.14 12.92 11.89 12.99L11.89 12.99L11.89 12.99Q11.63 13.06 11.33 13.06L11.33 13.06L11.33 13.06Q10.95 13.06 10.61 12.95L10.61 12.95L10.61 12.95Q10.26 12.84 10.00 12.61L10.00 12.61L10.00 12.61Q9.74 12.39 9.60 12.06L9.60 12.06L9.60 12.06Q9.45 11.73 9.45 11.30L9.45 11.30L9.45 11.30Q9.45 11.00 9.55 10.72L9.55 10.72L9.55 10.72Q9.65 10.44 9.90 10.19L9.90 10.19L9.90 10.19Q10.15 9.93 10.61 9.67L10.61 9.67L10.61 9.67Q11.06 9.41 11.77 9.16L11.77 9.16L11.77 9.16Q12.10 9.04 12.51 8.93L12.51 8.93L12.51 8.93Q12.92 8.81 13.34 8.69L13.34 8.69L13.34 8.32L13.34 8.32Q13.34 7.81 13.27 7.48L13.27 7.48L13.27 7.48Q13.19 7.15 13.03 6.96L13.03 6.96L13.03 6.96Q12.88 6.78 12.64 6.70L12.64 6.70L12.64 6.70Q12.39 6.62 12.04 6.62L12.04 6.62L12.04 6.62Q11.89 6.62 11.71 6.64L11.71 6.64L11.71 6.64Q11.54 6.65 11.33 6.69L11.33 6.69L11.05 7.67L11.05 7.67Q10.85 8.34 10.29 8.34L10.29 8.34L10.29 8.34Q10.00 8.34 9.83 8.18L9.83 8.18L9.83 8.18Q9.66 8.02 9.63 7.74L9.63 7.74L9.63 7.74Q9.83 6.94 10.56 6.46L10.56 6.46L10.56 6.46Q11.28 5.98 12.36 5.98L12.36 5.98L12.36 5.98Q13.47 5.98 14 6.54L14 6.54L14 6.54Q14.53 7.10 14.53 8.44L14.53 8.44L14.53 11.44L14.53 11.44Q14.53 12.26 14.99 12.26L14.99 12.26L14.99 12.26Q15.16 12.26 15.29 12.19L15.29 12.19L15.29 12.19Q15.41 12.11 15.51 12.03L15.51 12.03L15.58 11.94ZM22.97 12.15L23.95 12.35L23.95 12.85L20.71 12.85L20.71 12.35L21.74 12.15L21.74 12.15Q21.76 11.63 21.76 11.02L21.76 11.02L21.76 11.02Q21.77 10.40 21.77 9.91L21.77 9.91L21.77 8.68L21.77 8.68Q21.77 7.73 21.50 7.35L21.50 7.35L21.50 7.35Q21.24 6.97 20.62 6.97L20.62 6.97L20.62 6.97Q20.13 6.97 19.68 7.18L19.68 7.18L19.68 7.18Q19.22 7.39 18.69 7.85L18.69 7.85L18.69 9.91L18.69 9.91Q18.69 10.37 18.70 11.00L18.70 11.00L18.70 11.00Q18.70 11.62 18.72 12.15L18.72 12.15L19.70 12.35L19.70 12.85L16.45 12.85L16.45 12.35L17.49 12.15L17.49 12.15Q17.50 11.62 17.51 11.00L17.51 11.00L17.51 11.00Q17.51 10.39 17.51 9.91L17.51 9.91L17.51 9.20L17.51 9.20Q17.51 8.62 17.50 8.25L17.50 8.25L17.50 8.25Q17.49 7.87 17.47 7.45L17.47 7.45L16.37 7.32L16.37 6.83L18.31 5.98L18.52 6.12L18.63 7.25L18.63 7.25Q19.15 6.68 19.82 6.33L19.82 6.33L19.82 6.33Q20.48 5.98 21.15 5.98L21.15 5.98L21.15 5.98Q22.06 5.98 22.51 6.58L22.51 6.58L22.51 6.58Q22.95 7.18 22.95 8.57L22.95 8.57L22.95 9.91L22.95 9.91Q22.95 10.40 22.95 11.01L22.95 11.01L22.95 11.01Q22.96 11.62 22.97 12.15L22.97 12.15ZM29.78 11.47L29.78 7.50L29.78 7.50Q29.30 7.10 28.92 6.94L28.92 6.94L28.92 6.94Q28.55 6.78 28.20 6.78L28.20 6.78L28.20 6.78Q27.80 6.78 27.45 6.94L27.45 6.94L27.45 6.94Q27.10 7.11 26.84 7.46L26.84 7.46L26.84 7.46Q26.57 7.80 26.42 8.32L26.42 8.32L26.42 8.32Q26.26 8.83 26.26 9.55L26.26 9.55L26.26 9.55Q26.26 10.25 26.41 10.76L26.41 10.76L26.41 10.76Q26.56 11.27 26.82 11.61L26.82 11.61L26.82 11.61Q27.08 11.94 27.43 12.10L27.43 12.10L27.43 12.10Q27.78 12.26 28.20 12.26L28.20 12.26L28.20 12.26Q28.64 12.26 29.02 12.08L29.02 12.08L29.02 12.08Q29.39 11.89 29.78 11.47L29.78 11.47ZM30.97 12.17L32.10 12.35L32.10 12.85L29.92 12.99L29.82 12.05L29.82 12.05Q29.46 12.54 28.99 12.80L28.99 12.80L28.99 12.80Q28.53 13.06 27.86 13.06L27.86 13.06L27.86 13.06Q27.22 13.06 26.69 12.81L26.69 12.81L26.69 12.81Q26.17 12.56 25.79 12.10L25.79 12.10L25.79 12.10Q25.41 11.63 25.21 11.00L25.21 11.00L25.21 11.00Q25.00 10.36 25.00 9.59L25.00 9.59L25.00 9.59Q25.00 8.79 25.23 8.13L25.23 8.13L25.23 8.13Q25.45 7.46 25.85 6.99L25.85 6.99L25.85 6.99Q26.25 6.51 26.80 6.24L26.80 6.24L26.80 6.24Q27.34 5.98 27.99 5.98L27.99 5.98L27.99 5.98Q28.49 5.98 28.94 6.18L28.94 6.18L28.94 6.18Q29.39 6.38 29.82 6.89L29.82 6.89L29.82 3.91L28.63 3.77L28.63 3.28L30.83 2.65L31.02 2.76L30.97 4.75L30.97 12.17ZM43.55 12.15L44.53 12.35L44.53 12.85L41.29 12.85L41.29 12.35L42.32 12.15L42.32 12.15Q42.34 11.63 42.34 11.02L42.34 11.02L42.34 11.02Q42.35 10.40 42.35 9.91L42.35 9.91L42.35 8.65L42.35 8.65Q42.35 7.69 42.07 7.33L42.07 7.33L42.07 7.33Q41.79 6.97 41.19 6.97L41.19 6.97L41.19 6.97Q40.74 6.97 40.29 7.18L40.29 7.18L40.29 7.18Q39.83 7.39 39.30 7.88L39.30 7.88L39.30 7.88Q39.31 8.04 39.32 8.20L39.32 8.20L39.32 8.20Q39.33 8.37 39.33 8.57L39.33 8.57L39.33 9.91L39.33 9.91Q39.33 10.40 39.33 11.01L39.33 11.01L39.33 11.01Q39.34 11.62 39.35 12.15L39.35 12.15L40.33 12.35L40.33 12.85L37.09 12.85L37.09 12.35L38.12 12.15L38.12 12.15Q38.14 11.63 38.14 11.02L38.14 11.02L38.14 11.02Q38.15 10.40 38.15 9.91L38.15 9.91L38.15 8.68L38.15 8.68Q38.15 7.73 37.88 7.35L37.88 7.35L37.88 7.35Q37.60 6.97 37.00 6.97L37.00 6.97L37.00 6.97Q36.51 6.97 36.09 7.19L36.09 7.19L36.09 7.19Q35.66 7.41 35.13 7.85L35.13 7.85L35.13 9.91L35.13 9.91Q35.13 10.37 35.13 11.00L35.13 11.00L35.13 11.00Q35.14 11.62 35.15 12.15L35.15 12.15L36.13 12.35L36.13 12.85L32.89 12.85L32.89 12.35L33.92 12.15L33.92 12.15Q33.94 11.62 33.94 11.00L33.94 11.00L33.94 11.00Q33.95 10.39 33.95 9.91L33.95 9.91L33.95 9.20L33.95 9.20Q33.95 8.62 33.94 8.25L33.94 8.25L33.94 8.25Q33.92 7.87 33.91 7.45L33.91 7.45L32.80 7.32L32.80 6.83L34.75 5.98L34.96 6.12L35.07 7.25L35.07 7.25Q35.57 6.68 36.22 6.33L36.22 6.33L36.22 6.33Q36.86 5.98 37.53 5.98L37.53 5.98L37.53 5.98Q38.21 5.98 38.61 6.29L38.61 6.29L38.61 6.29Q39.02 6.59 39.19 7.29L39.19 7.29L39.19 7.29Q39.73 6.62 40.39 6.30L40.39 6.30L40.39 6.30Q41.05 5.98 41.73 5.98L41.73 5.98L41.73 5.98Q42.59 5.98 43.06 6.55L43.06 6.55L43.06 6.55Q43.53 7.13 43.53 8.43L43.53 8.43L43.53 9.91L43.53 9.91Q43.53 10.40 43.53 11.01L43.53 11.01L43.53 11.01Q43.54 11.62 43.55 12.15L43.55 12.15ZM49.48 11.38L49.48 9.23L49.48 9.23Q49.11 9.32 48.77 9.44L48.77 9.44L48.77 9.44Q48.43 9.55 48.20 9.63L48.20 9.63L48.20 9.63Q47.74 9.81 47.47 10.00L47.47 10.00L47.47 10.00Q47.19 10.19 47.05 10.37L47.05 10.37L47.05 10.37Q46.91 10.56 46.87 10.74L46.87 10.74L46.87 10.74Q46.83 10.92 46.83 11.07L46.83 11.07L46.83 11.07Q46.83 11.35 46.91 11.52L46.91 11.52L46.91 11.52Q46.98 11.69 47.10 11.82L47.10 11.82L47.10 11.82Q47.42 12.14 47.95 12.14L47.95 12.14L47.95 12.14Q48.12 12.14 48.27 12.10L48.27 12.10L48.27 12.10Q48.43 12.07 48.59 11.98L48.59 11.98L48.59 11.98Q48.76 11.89 48.97 11.74L48.97 11.74L48.97 11.74Q49.18 11.59 49.48 11.38L49.48 11.38ZM51.72 11.94L52.00 12.25L52.00 12.25Q51.76 12.70 51.48 12.85L51.48 12.85L51.48 12.85Q51.20 12.99 50.86 12.99L50.86 12.99L50.86 12.99Q50.27 12.99 49.94 12.71L49.94 12.71L49.94 12.71Q49.60 12.42 49.50 11.94L49.50 11.94L49.50 11.94Q49.22 12.22 48.99 12.43L48.99 12.43L48.99 12.43Q48.75 12.64 48.51 12.78L48.51 12.78L48.51 12.78Q48.27 12.92 48.02 12.99L48.02 12.99L48.02 12.99Q47.77 13.06 47.46 13.06L47.46 13.06L47.46 13.06Q47.08 13.06 46.74 12.95L46.74 12.95L46.74 12.95Q46.40 12.84 46.14 12.61L46.14 12.61L46.14 12.61Q45.88 12.39 45.73 12.06L45.73 12.06L45.73 12.06Q45.58 11.73 45.58 11.30L45.58 11.30L45.58 11.30Q45.58 11.00 45.68 10.72L45.68 10.72L45.68 10.72Q45.78 10.44 46.03 10.19L46.03 10.19L46.03 10.19Q46.28 9.93 46.74 9.67L46.74 9.67L46.74 9.67Q47.19 9.41 47.91 9.16L47.91 9.16L47.91 9.16Q48.23 9.04 48.64 8.93L48.64 8.93L48.64 8.93Q49.06 8.81 49.48 8.69L49.48 8.69L49.48 8.32L49.48 8.32Q49.48 7.81 49.40 7.48L49.40 7.48L49.40 7.48Q49.32 7.15 49.17 6.96L49.17 6.96L49.17 6.96Q49.01 6.78 48.77 6.70L48.77 6.70L48.77 6.70Q48.52 6.62 48.17 6.62L48.17 6.62L48.17 6.62Q48.02 6.62 47.85 6.64L47.85 6.64L47.85 6.64Q47.67 6.65 47.46 6.69L47.46 6.69L47.18 7.67L47.18 7.67Q46.98 8.34 46.42 8.34L46.42 8.34L46.42 8.34Q46.13 8.34 45.96 8.18L45.96 8.18L45.96 8.18Q45.79 8.02 45.77 7.74L45.77 7.74L45.77 7.74Q45.96 6.94 46.69 6.46L46.69 6.46L46.69 6.46Q47.42 5.98 48.50 5.98L48.50 5.98L48.50 5.98Q49.60 5.98 50.13 6.54L50.13 6.54L50.13 6.54Q50.67 7.10 50.67 8.44L50.67 8.44L50.67 11.44L50.67 11.44Q50.67 12.26 51.13 12.26L51.13 12.26L51.13 12.26Q51.30 12.26 51.42 12.19L51.42 12.19L51.42 12.19Q51.55 12.11 51.65 12.03L51.65 12.03L51.72 11.94ZM56.27 11.87L56.60 12.25L56.60 12.25Q56.34 12.60 55.91 12.80L55.91 12.80L55.91 12.80Q55.48 12.99 54.95 12.99L54.95 12.99L54.95 12.99Q54.21 12.99 53.78 12.61L53.78 12.61L53.78 12.61Q53.35 12.22 53.35 11.40L53.35 11.40L53.35 11.40Q53.35 11.13 53.36 10.87L53.36 10.87L53.36 10.87Q53.37 10.61 53.37 10.21L53.37 10.21L53.37 6.97L52.21 6.97L52.21 6.36L53.45 6.20L53.80 4.30L54.66 4.30L54.59 6.23L56.46 6.23L56.46 6.97L54.56 6.97L54.56 11.23L54.56 11.23Q54.56 11.77 54.76 12.02L54.76 12.02L54.76 12.02Q54.96 12.26 55.33 12.26L55.33 12.26L55.33 12.26Q55.75 12.26 56.27 11.87L56.27 11.87ZM62.71 11.07L63.06 11.26L63.06 11.26Q62.78 12.14 62.11 12.60L62.11 12.60L62.11 12.60Q61.45 13.06 60.44 13.06L60.44 13.06L60.44 13.06Q59.72 13.06 59.14 12.82L59.14 12.82L59.14 12.82Q58.56 12.57 58.15 12.11L58.15 12.11L58.15 12.11Q57.74 11.65 57.52 11.00L57.52 11.00L57.52 11.00Q57.30 10.35 57.30 9.55L57.30 9.55L57.30 9.55Q57.30 8.72 57.57 8.06L57.57 8.06L57.57 8.06Q57.83 7.39 58.29 6.93L58.29 6.93L58.29 6.93Q58.74 6.47 59.33 6.22L59.33 6.22L59.33 6.22Q59.91 5.98 60.54 5.98L60.54 5.98L60.54 5.98Q61.01 5.98 61.44 6.12L61.44 6.12L61.44 6.12Q61.87 6.26 62.20 6.50L62.20 6.50L62.20 6.50Q62.52 6.75 62.73 7.08L62.73 7.08L62.73 7.08Q62.94 7.41 63.01 7.80L63.01 7.80L63.01 7.80Q62.92 8.33 62.37 8.33L62.37 8.33L62.37 8.33Q62.02 8.33 61.85 8.14L61.85 8.14L61.85 8.14Q61.68 7.95 61.61 7.66L61.61 7.66L61.36 6.73L61.36 6.73Q61.17 6.66 60.97 6.64L60.97 6.64L60.97 6.64Q60.77 6.62 60.61 6.62L60.61 6.62L60.61 6.62Q59.70 6.62 59.12 7.34L59.12 7.34L59.12 7.34Q58.53 8.05 58.53 9.41L58.53 9.41L58.53 9.41Q58.53 10.75 59.16 11.46L59.16 11.46L59.16 11.46Q59.78 12.17 60.77 12.17L60.77 12.17L60.77 12.17Q61.38 12.17 61.88 11.89L61.88 11.89L61.88 11.89Q62.38 11.61 62.71 11.07L62.71 11.07ZM70.34 12.15L71.32 12.35L71.32 12.85L68.07 12.85L68.07 12.35L69.10 12.15L69.10 12.15Q69.12 11.63 69.13 11.02L69.13 11.02L69.13 11.02Q69.13 10.40 69.13 9.91L69.13 9.91L69.13 8.68L69.13 8.68Q69.13 7.73 68.87 7.35L68.87 7.35L68.87 7.35Q68.60 6.97 67.98 6.97L67.98 6.97L67.98 6.97Q67.48 6.97 67.02 7.19L67.02 7.19L67.02 7.19Q66.56 7.41 66.00 7.90L66.00 7.90L66.00 9.91L66.00 9.91Q66.00 10.37 66.00 11.00L66.00 11.00L66.00 11.00Q66.01 11.62 66.02 12.15L66.02 12.15L66.99 12.35L66.99 12.85L63.74 12.85L63.74 12.35L64.79 12.15L64.79 12.15Q64.81 11.62 64.81 11.00L64.81 11.00L64.81 11.00Q64.82 10.37 64.82 9.91L64.82 9.91L64.82 3.91L63.67 3.77L63.67 3.28L65.81 2.65L66.01 2.76L65.95 4.75L65.95 7.28L65.95 7.28Q66.47 6.69 67.16 6.33L67.16 6.33L67.16 6.33Q67.84 5.98 68.52 5.98L68.52 5.98L68.52 5.98Q69.43 5.98 69.87 6.58L69.87 6.58L69.87 6.58Q70.31 7.18 70.31 8.57L70.31 8.57L70.31 9.91L70.31 9.91Q70.31 10.40 70.31 11.01L70.31 11.01L70.31 11.01Q70.32 11.62 70.34 12.15L70.34 12.15Z"></path></g><!----><g data-v-423bf9ae="" id="d6d67a2f-f81a-494b-a44b-896248a9e406" transform="matrix(1.1111132303873699,0,0,1.1111132303873699,0.8392449603658534,0.44423251661645935)" stroke="none" fill="white"><path d="M30.673 0h-3.997v76.41c-4.103-2.337-10.685-1.913-16.739 1.513C2.012 82.406-1.996 90.314.986 95.587c2.983 5.271 11.825 5.912 19.75 1.428 5.849-3.309 9.553-8.479 9.899-13.084l.038-1.046V26.978c26.379 6.088 22.981 33.389 14.02 47.961h.968C71.639 27.978 30.673 29.976 30.673 0z"></path></g><!----><g data-v-423bf9ae="" id="45a8bfce-2ff1-420f-b663-820eec76cb78" fill="white" transform="matrix(1.0076478674840743,0,0,1.0076478674840743,79.86812781177474,57.883941089642896)"><path d="M1.75 4.65C1.75 4.03 2.11 3.08 4.21 3.08C5.91 3.08 6.69 3.82 6.80 4.75L7.88 4.75C7.80 3.36 6.68 2.10 4.21 2.10C1.89 2.10 0.73 3.15 0.73 4.66C0.73 7.84 7.07 6.69 7.07 8.96C7.07 10.05 6.09 10.60 4.52 10.60C2.91 10.60 1.61 10.05 1.54 8.71L0.45 8.71C0.59 10.37 1.71 11.59 4.45 11.59C6.73 11.59 8.12 10.64 8.12 8.92C8.12 5.68 1.75 6.80 1.75 4.65ZM23.32 2.21L15.81 2.21L15.81 3.22L19.04 3.22L19.04 11.48L20.09 11.48L20.09 3.22L23.32 3.22ZM34.99 2.21L33.67 2.21L29.74 11.48L30.90 11.48L32.03 8.79L36.62 8.79L37.76 11.48L38.92 11.48ZM32.44 7.83L34.33 3.30L36.22 7.83ZM48.15 7.92L51.37 7.92L53.61 11.48L54.85 11.48L52.42 7.74C53.45 7.50 54.66 6.90 54.66 5.11C54.66 3.35 53.44 2.21 51.53 2.21L47.10 2.21L47.10 11.48L48.15 11.48ZM48.15 3.21L51.41 3.21C52.72 3.21 53.61 3.93 53.61 5.11C53.61 6.55 52.35 6.93 51.35 6.93L48.15 6.93ZM70.04 2.21L62.52 2.21L62.52 3.22L65.76 3.22L65.76 11.48L66.81 11.48L66.81 3.22L70.04 3.22ZM89.40 8.18L92.53 8.18C94.50 8.18 95.72 7.03 95.72 5.19C95.72 3.37 94.50 2.21 92.53 2.21L88.35 2.21L88.35 11.48L89.40 11.48ZM92.46 3.21C93.91 3.21 94.67 3.96 94.67 5.19C94.67 6.44 93.91 7.20 92.46 7.20L89.40 7.20L89.40 3.21ZM104.15 2.21L104.15 11.48L110.25 11.48L110.25 10.47L105.20 10.47L105.20 2.21ZM122.77 2.21L121.45 2.21L117.52 11.48L118.68 11.48L119.81 8.79L124.40 8.79L125.54 11.48L126.70 11.48ZM120.22 7.83L122.11 3.30L124.00 7.83ZM137.69 7.81L141.57 2.21L140.29 2.21L137.16 6.72L134.02 2.21L132.75 2.21L136.64 7.81L136.64 11.48L137.69 11.48ZM150.75 2.21L149.70 2.21L149.70 11.48L150.75 11.48ZM166.96 2.21L166.96 10.01L161.24 2.21L160.02 2.21L160.02 11.48L161.07 11.48L161.07 3.65L166.80 11.48L168.01 11.48L168.01 2.21ZM181.26 2.10C178.47 2.10 176.69 4.21 176.69 6.85C176.69 9.48 178.40 11.59 181.23 11.59C182.91 11.59 184.00 10.74 184.59 9.84L184.59 11.48L185.56 11.48L185.56 6.55L181.20 6.55L181.20 7.50L184.59 7.50C184.59 9.44 182.99 10.57 181.31 10.57C179.06 10.57 177.74 8.93 177.74 6.85C177.74 4.76 179.09 3.12 181.34 3.12C182.76 3.12 183.76 3.74 184.32 4.73L185.47 4.73C184.79 3.18 183.25 2.10 181.26 2.10ZM210.97 2.21L203.45 2.21L203.45 3.22L206.68 3.22L206.68 11.48L207.73 11.48L207.73 3.22L210.97 3.22ZM223.02 2.10C220.21 2.10 218.32 4.21 218.32 6.85C218.32 9.48 220.21 11.59 223.02 11.59C225.83 11.59 227.72 9.48 227.72 6.85C227.72 4.21 225.83 2.10 223.02 2.10ZM223.02 10.57C220.77 10.57 219.37 8.93 219.37 6.85C219.37 4.76 220.77 3.12 223.02 3.12C225.27 3.12 226.67 4.76 226.67 6.85C226.67 8.93 225.27 10.57 223.02 10.57ZM240.38 2.10C237.59 2.10 235.82 4.21 235.82 6.85C235.82 9.48 237.52 11.59 240.35 11.59C242.03 11.59 243.12 10.74 243.71 9.84L243.71 11.48L244.68 11.48L244.68 6.55L240.32 6.55L240.32 7.50L243.71 7.50C243.71 9.44 242.12 10.57 240.44 10.57C238.18 10.57 236.87 8.93 236.87 6.85C236.87 4.76 238.21 3.12 240.46 3.12C241.88 3.12 242.89 3.74 243.45 4.73L244.59 4.73C243.91 3.18 242.37 2.10 240.38 2.10ZM260.34 3.22L260.34 2.21L253.53 2.21L253.53 11.48L260.34 11.48L260.34 10.47L254.58 10.47L254.58 7.35L259.73 7.35L259.73 6.33L254.58 6.33L254.58 3.22ZM275.62 2.21L268.10 2.21L268.10 3.22L271.33 3.22L271.33 11.48L272.38 11.48L272.38 3.22L275.62 3.22ZM290.39 2.21L290.39 6.33L285.00 6.33L285.00 2.21L283.95 2.21L283.95 11.48L285.00 11.48L285.00 7.35L290.39 7.35L290.39 11.48L291.44 11.48L291.44 2.21ZM307.52 3.22L307.52 2.21L300.71 2.21L300.71 11.48L307.52 11.48L307.52 10.47L301.76 10.47L301.76 7.35L306.91 7.35L306.91 6.33L301.76 6.33L301.76 3.22ZM317.27 7.92L320.49 7.92L322.73 11.48L323.97 11.48L321.54 7.74C322.57 7.50 323.78 6.90 323.78 5.11C323.78 3.35 322.56 2.21 320.66 2.21L316.22 2.21L316.22 11.48L317.27 11.48ZM317.27 3.21L320.53 3.21C321.85 3.21 322.73 3.93 322.73 5.11C322.73 6.55 321.47 6.93 320.47 6.93L317.27 6.93Z"></path></g></svg>